<svg xmlns="http://www.w3.org/2000/svg" viewBox="0 0 480 480"><defs><style>.cls-1{fill:#FFFFFF;}@media (prefers-color-scheme: dark) { .cls-1 { fill: #000000}}</style></defs><g id="Capa_2" data-name="Capa 2"><path class="cls-1" d="M477.9,454,244.18,1.74a3,3,0,0,0-5.39,0L1.18,465.3C-2.17,471.84,2,480,8.73,480H337.87c33.73,0,54.91-40.92,38.26-73.9L245.3,147a4.22,4.22,0,0,0-7.74,0L112.67,396.87c-3.27,6.53.93,14.6,7.6,14.6h66.16V394.9a8.41,8.41,0,1,1,5.62,0v16.57h34.54v-9.83l-39.26-49.75h-.08V326.14a8.41,8.41,0,1,1,5.62,0v23.7l39.33,49.85h0v11.77h5.61V326.14a8.42,8.42,0,1,1,5.61,0v85.33h17.5V356.71a8.42,8.42,0,1,1,5.61,0v54.76h16.53V310.74a8.41,8.41,0,1,1,5.62,0V411.47H338c5.65,0,10.7,3.94,12.68,9.88h0c3.32,9.95-3.22,20.57-12.68,20.57H62.37c-6.71,0-10.91-8.18-7.54-14.72L238.72,70.26a3,3,0,0,1,5.39,0L451.32,471.4c2.75,5.32,7.81,8.6,13.29,8.6h0C476.46,480,483.85,465.56,477.9,454Z" transform="translate(0 0)"/></g></svg>